<svg xmlns="http://www.w3.org/2000/svg"  viewBox="0 0 48 48" width="48px" height="48px" baseProfile="basic"><path fill="#0078d4" d="M24,2L24,2L24,2L3.437,9.304l3.136,27.082L24,46l0,0l0,0l17.427-9.614l3.136-27.082L24,2z"/><path fill="#fff" d="M30.033,22.866l-1.973-0.438l1.534,2.191v6.793l5.261-4.382v-7.45l-2.411,0.876L30.033,22.866z"/><path fill="#fff" d="M17.758,22.866l1.973-0.438l-1.534,2.191v6.793l-5.261-4.382v-7.45l2.411,0.876L17.758,22.866z"/><path fill="#fff" d="M18.833,25.03l1.748-2.635l1.093,0.659h4.371l1.093-0.659l1.748,2.635v9.88l-1.311,1.976l-1.53,1.537	h-4.371l-1.53-1.537l-1.311-1.976V25.03z"/><path fill="#fff" d="M29.595,35.575l2.849-2.849v-2.849l-2.849,2.41V35.575z"/><path fill="#fff" d="M18.197,35.575l-2.849-2.849v-2.849l2.849,2.41V35.575z"/><path fill="#fff" d="M21.046,9.719l-1.754,4.163l2.849,8.326h1.315V9.719H21.046z M24.334,9.719v12.49h1.535l2.63-8.326	l-1.754-4.163H24.334z"/><path fill="#fff" d="M22.142,22.208l-9.425-3.506l-1.315-5.478l8.11,0.657l2.849,8.326H22.142z"/><path fill="#fff" d="M25.869,22.208l9.425-3.506l1.315-5.478l-8.329,0.657l-2.63,8.326H25.869z"/><path fill="#fff" d="M28.937,13.225l4.603-0.438l-3.069-3.068h-3.069L28.937,13.225z"/><path fill="#fff" d="M18.854,13.225l-4.603-0.438l3.069-3.068h3.069L18.854,13.225z"/></svg>